<svg style="display: none;" aria-hidden="true" xmlns="http://www.w3.org/2000/svg" xmlns:xlink="http://www.w3.org/1999/xlink"><symbol viewBox="0 0 24 24" fill="none" id="svg-Bulb"><path opacity=".3" fill-rule="evenodd" clip-rule="evenodd" d="M12 17C16.4183 17 20 13.4183 20 9C20 4.58172 16.4183 1 12 1C7.58172 1 4 4.58172 4 9C4 13.4183 7.58172 17 12 17Z" fill="#99EFD0"/><path opacity=".3" fill-rule="evenodd" clip-rule="evenodd" d="M6.53816 9L10.568 19.3624L11.9759 18.8149L13.3745 19.3674L17.4703 9H6.53816ZM9.46185 11H14.5297L11.9758 17.4645L9.46185 11Z" fill="#99EFD0"/><path opacity=".3" d="M10 22H14C14 23.1046 13.1046 24 12 24C10.8954 24 10 23.1046 10 22Z" fill="#99EFD0"/><path fill-rule="evenodd" clip-rule="evenodd" d="M8 17C8 16.4477 8.44772 16 9 16H15C15.5523 16 16 16.4477 16 17C16 17.5523 15.5523 18 15 18C15.5523 18 16 18.4477 16 19C16 19.5523 15.5523 20 15 20C15.5523 20 16 20.4477 16 21C16 21.5523 15.5523 22 15 22H9C8.44772 22 8 21.5523 8 21C8 20.4477 8.44772 20 9 20C8.44772 20 8 19.5523 8 19C8 18.4477 8.44772 18 9 18C8.44772 18 8 17.5523 8 17Z" fill="#99EFD0"/></symbol><symbol viewBox="0 0 24 24" fill="none" id="svg-LTE"><path opacity=".3" fill-rule="evenodd" clip-rule="evenodd" d="M7.25619 18.9292L5.97889 20.4681C3.47693 18.3916 2 15.3153 2 12C2 8.68921 3.47282 5.61675 5.96885 3.54016L7.24797 5.07765C5.20393 6.77819 4 9.28973 4 12C4 14.714 5.2073 17.2287 7.25619 18.9292ZM16.7438 18.9292L18.0211 20.4681C20.5231 18.3916 22 15.3153 22 12C22 8.68921 20.5272 5.61675 18.0311 3.54016L16.752 5.07765C18.7961 6.77819 20 9.28973 20 12C20 14.714 18.7927 17.2287 16.7438 18.9292ZM14.1785 15.8599L15.4509 17.4029C17.0529 16.082 18 14.1173 18 12C18 9.88957 17.0591 7.93072 15.4661 6.60961L14.1894 8.14908C15.329 9.09417 16 10.4912 16 12C16 13.5137 15.3245 14.9149 14.1785 15.8599ZM8.5491 17.4029L9.8215 15.8599C8.6755 14.9149 8 13.5137 8 12C8 10.4912 8.67104 9.09417 9.81062 8.14908L8.53389 6.60961C6.94091 7.93072 6 9.88957 6 12C6 14.1173 6.94714 16.082 8.5491 17.4029Z" fill="#99EFD0"/><path fill-rule="evenodd" clip-rule="evenodd" d="M12 14C13.1046 14 14 13.1046 14 12C14 10.8954 13.1046 10 12 10C10.8954 10 10 10.8954 10 12C10 13.1046 10.8954 14 12 14Z" fill="#99EFD0"/></symbol><symbol viewBox="0 0 14 12" fill="none" id="svg-Twitter"><path d="M4.403 12C9.6859 12 12.5755 7.38274 12.5755 3.3791C12.5755 3.24766 12.5755 3.11696 12.5671 2.987C13.1292 2.55873 13.6143 2.02707 14 1.41862C13.4764 1.66378 12.9199 1.82475 12.3508 1.89564C12.95 1.51683 13.3987 0.921677 13.6136 0.219452C13.0494 0.57241 12.4327 0.821254 11.7894 0.954905C10.7016 -0.264943 8.8823 -0.324016 7.7252 0.823469C6.9797 1.56335 6.6626 2.66653 6.8943 3.71876C4.585 3.59619 2.4332 2.44575 0.9744 0.553212C0.2121 1.93773 0.602 3.70843 1.8641 4.59747C1.407 4.58344 0.9597 4.45348 0.56 4.21867V4.25706C0.5607 5.69917 1.5246 6.94117 2.8644 7.22694C2.4416 7.34877 1.9978 7.3665 1.568 7.27862C1.9439 8.51324 3.0226 9.35872 4.2511 9.38309C3.234 10.2263 1.9775 10.6842 0.6839 10.6827C0.4557 10.6819 0.2275 10.6679 0 10.6391C1.3139 11.5282 2.842 12 4.403 11.9978" fill="#fff"/></symbol><symbol viewBox="0 0 24 24" fill="none" id="svg-airpods"><path opacity=".3" fill-rule="evenodd" clip-rule="evenodd" d="M14 11.4722C14.8262 12.2117 15.8584 12.7255 17 12.9171V20.5C17 21.3284 16.3284 22 15.5 22 14.6716 22 14 21.3284 14 20.5V11.4722zM7 12.9171C8.14157 12.7255 9.17384 12.2117 10 11.4722V20.5C10 21.3284 9.32843 22 8.5 22 7.67157 22 7 21.3284 7 20.5V12.9171z" fill="#99EFD0"/><path fill-rule="evenodd" clip-rule="evenodd" d="M18 12C20.7614 12 23 9.76142 23 7 23 4.23858 20.7614 2 18 2 15.2386 2 13 4.23858 13 7 13 9.76142 15.2386 12 18 12zM14 7.25C14 6.83579 14.3358 6.5 14.75 6.5H15.25C15.6642 6.5 16 6.83579 16 7.25 16 7.66421 15.6642 8 15.25 8H14.75C14.3358 8 14 7.66421 14 7.25zM21 5C20.4477 5 20 5.44772 20 6V8C20 8.55228 20.4477 9 21 9 21.5523 9 22 8.55228 22 8V6C22 5.44772 21.5523 5 21 5zM6 12C8.76142 12 11 9.76142 11 7 11 4.23858 8.76142 2 6 2 3.23858 2 1 4.23858 1 7 1 9.76142 3.23858 12 6 12zM8 7.25C8 6.83579 8.33579 6.5 8.75 6.5H9.25C9.66421 6.5 10 6.83579 10 7.25 10 7.66421 9.66421 8 9.25 8H8.75C8.33579 8 8 7.66421 8 7.25zM3 5C2.44772 5 2 5.44772 2 6V8C2 8.55228 2.44772 9 3 9 3.55228 9 4 8.55228 4 8V6C4 5.44772 3.55228 5 3 5z" fill="#99EFD0"/></symbol><symbol viewBox="0 0 164 155" fill="none" id="svg-arrow"><g filter="url(#efilter0_d_2_585)"><rect x="53.344" y="13.043" width="89.386" height="80.448" rx="8.939" fill="#13C296"/></g><path d="M77.4786 63.5679L93.2775 49.6097L100.858 57.5743L118.332 42.54L117.785 51.5346L118.332 42.54H108.345" stroke="#fff" stroke-width="5.363" stroke-linecap="round" stroke-linejoin="round"/><defs><filter id="efilter0_d_2_585" x=".607" y=".529" width="162.683" height="153.744" filterUnits="userSpaceOnUse" color-interpolation-filters="sRGB"><feFlood flood-opacity="0" result="BackgroundImageFix"/><feColorMatrix in="SourceAlpha" values="0 0 0 0 0 0 0 0 0 0 0 0 0 0 0 0 0 0 127 0" result="hardAlpha"/><feOffset dx="-16.09" dy="24.134"/><feGaussianBlur stdDeviation="18.324"/><feColorMatrix values="0 0 0 0 0.0745098 0 0 0 0 0.760784 0 0 0 0 0.588235 0 0 0 0.24 0"/><feBlend in2="BackgroundImageFix" result="effect1_dropShadow_2_585"/><feBlend in="SourceGraphic" in2="effect1_dropShadow_2_585" result="shape"/></filter></defs></symbol><symbol viewBox="0 0 24 24" fill="none" id="svg-elegance"><path opacity=".3" fill-rule="evenodd" clip-rule="evenodd" d="M3.27427 18.3143C3.14289 18.6428 3.38477 19 3.73851 19H8.49999C8.77613 19 8.99999 18.7762 8.99999 18.5V6.59631C8.99999 6.04578 8.24021 5.89947 8.03575 6.41062L3.27427 18.3143Z" fill="#99EFD0"/><path fill-rule="evenodd" clip-rule="evenodd" d="M20.7257 18.3143C20.8571 18.6427 20.6152 19 20.2615 19H15.5C15.2239 19 15 18.7761 15 18.5V6.59629C15 6.04576 15.7598 5.89944 15.9642 6.4106L20.7257 18.3143Z" fill="#99EFD0"/><rect opacity=".3" x="11" y="2" width="2" height="20" rx="1" fill="#99EFD0"/></symbol><symbol viewBox="0 0 24 24" fill="none" id="svg-endeavor"><path opacity=".3" fill-rule="evenodd" clip-rule="evenodd" d="M4.22182 14.1213C3.44077 14.9024 3.44077 16.1687 4.22182 16.9497L7.05025 19.7782C7.8313 20.5592 9.09763 20.5592 9.87868 19.7782L12.7071 16.9497C13.4882 16.1687 13.4882 14.9024 12.7071 14.1213L12 13.4142L9.87868 15.5355C9.48815 15.926 8.85499 15.926 8.46446 15.5355C8.07394 15.145 8.07394 14.5118 8.46446 14.1213L10.5858 12L9.87868 11.2929C9.09763 10.5118 7.8313 10.5118 7.05025 11.2929L4.22182 14.1213Z" fill="#99EFD0"/><path fill-rule="evenodd" clip-rule="evenodd" d="M11.2929 7.05026C10.5118 7.83131 10.5118 9.09764 11.2929 9.87869L12 10.5858L14.1213 8.46448C14.5118 8.07395 15.145 8.07395 15.5355 8.46448C15.9261 8.855 15.9261 9.48817 15.5355 9.87869L13.4142 12L14.1213 12.7071C14.9024 13.4882 16.1687 13.4882 16.9497 12.7071L19.7782 9.87869C20.5592 9.09764 20.5592 7.83131 19.7782 7.05026L16.9497 4.22184C16.1687 3.44079 14.9024 3.44079 14.1213 4.22184L11.2929 7.05026Z" fill="#99EFD0"/></symbol><symbol viewBox="0 0 8 14" fill="none" id="svg-facebook"><path d="M5.45703 14V7.7H7.64295L8 4.9H5.45703V3.5364C5.45703 2.8154 5.47807 2.1 6.62951 2.1H7.79575V0.098C7.79575 0.0679 6.794 0 5.78055 0C3.664 0 2.33873 1.1599 2.33873 3.29V4.9H0V7.7H2.33873V14H5.45703Z" fill="#fff"/></symbol><symbol viewBox="0 0 13 13" fill="none" id="svg-google"><path d="M12.3929 5.30232H6.62678C6.62678 5.90198 6.62678 7.10131 6.6231 7.70097H9.96443C9.83639 8.30063 9.38242 9.14016 8.74099 9.56292C8.74038 9.56232 8.73977 9.56652 8.73854 9.56592C7.88575 10.129 6.76033 10.2567 5.9247 10.0888C4.61488 9.82857 3.5783 8.87871 3.15741 7.67218C3.15986 7.67039 3.1617 7.6536 3.16354 7.6524C2.90011 6.90402 2.90011 5.90198 3.16354 5.30232H3.16293C3.50233 4.20014 4.57016 3.19451 5.88181 2.91926C6.93677 2.69559 8.12713 2.93785 9.00259 3.75699C9.11899 3.64305 10.6138 2.18347 10.7259 2.06474C7.73504 -0.643934 2.94605 0.30893 1.15409 3.80676H1.15348C1.15348 3.80676 1.15409 3.80676 1.15041 3.81336C0.263927 5.53139 0.300685 7.55585 1.15654 9.19173C1.15409 9.19353 1.15225 9.19473 1.15041 9.19653C1.92601 10.7017 3.33753 11.856 5.03821 12.2956C6.84488 12.7693 9.14411 12.4455 10.6843 11.0525C10.6849 11.0531 10.6855 11.0537 10.6861 11.0543C11.991 9.87894 12.8034 7.87667 12.3929 5.30232Z" fill="#fff"/></symbol><symbol viewBox="0 0 36 36" fill="none" id="svg-knife"><path opacity=".3" fill-rule="evenodd" clip-rule="evenodd" d="M23.6764 21H30V3C25.0294 3 21 7.02944 21 12V18.2573L11.7426 8.99997C9.3995 11.3431 9.3995 15.1421 11.7426 17.4853L19.4669 25.2095L23.6764 21Z" fill="#99EFD0"/><path fill-rule="evenodd" clip-rule="evenodd" d="M6.5 18C3.73858 18 1.5 20.2386 1.5 23V26.5C1.5 29.2614 3.73858 31.5 6.5 31.5H29.5C32.2614 31.5 34.5 29.2614 34.5 26.5V23C34.5 20.2386 32.2614 18 29.5 18H6.5ZM31.5 24.75C31.5 25.9926 30.4926 27 29.25 27C28.0074 27 27 25.9926 27 24.75C27 23.5074 28.0074 22.5 29.25 22.5C30.4926 22.5 31.5 23.5074 31.5 24.75Z" fill="#99EFD0"/></symbol><symbol viewBox="0 0 24 24" fill="none" id="svg-opengame"><path fill-rule="evenodd" clip-rule="evenodd" d="M15 19.5229C15 20.265 15.9624 20.5564 16.374 19.9389L22.2227 11.166C22.5549 10.6676 22.1976 10 21.5986 10H17V4.47708C17 3.73503 16.0376 3.44363 15.626 4.06106L9.77735 12.834C9.44507 13.3324 9.80237 14 10.4014 14H15V19.5229Z" fill="#99EFD0"/><path opacity=".3" fill-rule="evenodd" clip-rule="evenodd" d="M3 6.5C3 5.67157 3.67157 5 4.5 5H9.5C10.3284 5 11 5.67157 11 6.5C11 7.32843 10.3284 8 9.5 8H4.5C3.67157 8 3 7.32843 3 6.5ZM3 18.5C3 17.6716 3.67157 17 4.5 17H9.5C10.3284 17 11 17.6716 11 18.5C11 19.3284 10.3284 20 9.5 20H4.5C3.67157 20 3 19.3284 3 18.5ZM2.5 11C1.67157 11 1 11.6716 1 12.5C1 13.3284 1.67157 14 2.5 14H6.5C7.32843 14 8 13.3284 8 12.5C8 11.6716 7.32843 11 6.5 11H2.5Z" fill="#99EFD0"/></symbol></svg>